<?xml version="1.0" encoding="UTF-8"?>
<!DOCTYPE svg PUBLIC "-//W3C//DTD SVG 1.1//EN" "http://www.w3.org/Graphics/SVG/1.1/DTD/svg11.dtd">
<!-- Creator: CorelDRAW 2020 (64-Bit) -->
<svg xmlns="http://www.w3.org/2000/svg" xml:space="preserve" width="50.8mm" height="50.8mm" version="1.1" style="shape-rendering:geometricPrecision; text-rendering:geometricPrecision; image-rendering:optimizeQuality; fill-rule:evenodd; clip-rule:evenodd"
viewBox="0 0 5080 5080"
 xmlns:xlink="http://www.w3.org/1999/xlink"
 xmlns:xodm="http://www.corel.com/coreldraw/odm/2003">
 <defs>
  <style type="text/css">
   <![CDATA[
    .str0 {stroke:#F3F1EE;stroke-width:20;stroke-miterlimit:22.9256}
    .fil9 {fill:#41B883}
    .fil3 {fill:#1A2A31;fill-rule:nonzero}
    .fil1 {fill:#243A44;fill-rule:nonzero}
    .fil0 {fill:#41B866;fill-rule:nonzero}
    .fil6 {fill:#41B883;fill-rule:nonzero}
    .fil4 {fill:#445D67;fill-rule:nonzero}
    .fil2 {fill:#7C9AA5;fill-rule:nonzero}
    .fil8 {fill:#F9F7F6;fill-rule:nonzero}
    .fil5 {fill:#F9FBFB;fill-rule:nonzero}
    .fil7 {fill:#FF6B79;fill-rule:nonzero}
   ]]>
  </style>
 </defs>
 <g id="Слой_x0020_1">
  <metadata id="CorelCorpID_0Corel-Layer"/>
  <g id="_1262304672976">
   <g>
    <g>
     <g>
      <path class="fil0" d="M4569.45 3459.07c0,32.15 -1.38,64.06 -3.9,95.75l-0.23 0c-203.44,-127.44 -846.35,-385.52 -846.35,-385.52 0,0 -223.18,-190.12 -353.14,-367.38 16.3,-60.61 45,-194.94 71.41,-321.45 3.67,-17.45 7.34,-34.9 10.79,-51.89 9.41,-1.38 18.37,-3.22 27.09,-5.05 139.61,-30.08 197.93,-114.35 215.61,-237.65 530.86,278.29 878.72,744.85 878.72,1273.19z"/>
      <path class="fil1" d="M4247.08 3449.88c14.92,11.49 253.95,195.63 265.2,230.08 11.48,34.44 -85.19,354.75 -141.9,447.51 -1.61,2.75 -3.45,5.51 -5.05,7.8 -180.25,281.97 -470.02,515.94 -826.83,669.32 175.42,-198.38 266.12,-525.35 266.12,-525.35l-110.45 -391.03 252.8 -58.55 52.36 -285.18c-56.95,-156.82 -188.28,-265.65 -188.28,-265.65 -27.79,-37.66 -58.78,-75.09 -92.08,-109.53 0,0 642.91,258.08 846.35,385.52l0.23 0c-1.15,16.53 -2.99,32.6 -5.05,48.91l-313.42 -153.85z"/>
      <path class="fil2" d="M4247.08 3449.88l313.42 153.85c-22.51,186.21 -88.41,362.78 -190.12,523.74 56.71,-92.76 153.38,-413.07 141.9,-447.51 -11.25,-34.45 -250.28,-218.59 -265.2,-230.08z"/>
      <path class="fil3" d="M4048.69 1275.7c156.6,47.76 348.78,183.69 340.97,336.84 0,0 -38.11,-77.61 -139.37,-183.69 -94.83,-99.42 -190.12,-147.41 -201.6,-153.15z"/>
      <path class="fil1" d="M4176.12 1911.03c-16.98,8.04 -570.58,266.81 -1630.46,266.81l0 -447.97c353.14,0 679.87,-51.66 883.54,-136.16 194.71,-80.82 288.16,-155.21 289.77,-183.69 1.61,-28.7 -130.42,-51.2 -130.42,-51.2l-2.06 0.23c-7.12,-56.48 -16.77,-117.33 -27.33,-180.48 -1.38,-7.57 -2.76,-15.38 -4.13,-23.18l29.85 -0.69c870.45,57.4 960.69,437.4 780.22,660.59 -106.54,131.79 -285.87,263.59 -671.85,349.47 -9.41,2.06 -19.05,4.13 -28.7,6.19 -53.04,11.26 -109.75,21.59 -170.6,31 -243.62,37.66 -552.9,59.93 -948.29,59.93l0 -40.41c963.67,0 1388.23,-148.79 1630.46,-310.44zm213.54 -298.49l0 0c7.81,-153.15 -184.37,-289.08 -340.97,-336.84 -0.46,-0.23 -0.69,-0.23 -1.15,-0.46 0,0 0.46,0.23 1.15,0.46 11.48,5.74 106.77,53.73 201.6,153.15 101.26,106.08 139.37,183.69 139.37,183.69z"/>
      <path class="fil3" d="M3901.74 3783.97l0.23 0c40.87,-148.1 63.6,-248.9 63.6,-248.9 0,0 -59.47,-127.89 -154.52,-256.24 0,0 131.33,108.83 188.28,265.65l-52.36 285.18 -252.8 58.55 110.45 391.03c0,0 -90.7,326.97 -266.12,525.35 -29.63,12.86 -59.7,25.03 -90.24,36.51 122.61,-138.46 231.68,-383.22 317.55,-623.62 -1.61,-3.91 -140.29,-349.01 -140.29,-349.01l81.28 -24.8 194.94 -59.7z"/>
      <path class="fil1" d="M3718.74 4217.93c-4.36,2.99 -72.56,46.39 -231.68,-36.27 -168.76,-87.71 -168.76,-475.53 -168.76,-475.53 3.21,336.84 -83.58,938.88 -195.17,1233.01 -6.43,1.61 -13.09,2.99 -19.75,4.36 57.64,-246.6 148.56,-969.87 172.9,-1517.49 8.27,-183 8.96,-346.26 -1.61,-465.66 47.99,-66.81 81.97,-123.99 91.16,-158.43 129.96,177.26 353.14,367.38 353.14,367.38 33.3,34.44 64.29,71.87 92.08,109.53 95.05,128.35 154.52,256.24 154.52,256.24 0,0 -22.73,100.8 -63.6,248.9l-0.23 0 -194.94 59.7 -315.03 -455.32c8.73,15.38 149.48,262.91 233.75,480.12 0,0 138.68,345.1 140.29,349.01 -85.87,240.4 -194.94,485.16 -317.55,623.62l-0.23 0.23c-18.6,7.12 -37.66,14.01 -56.71,20.67 104.47,-147.19 228,-359.12 327.42,-644.07z"/>
      <path class="fil3" d="M2545.66 2177.84c1059.88,0 1613.48,-258.77 1630.46,-266.81 -242.23,161.65 -666.79,310.44 -1630.46,310.44l0 -43.63z"/>
      <path class="fil3" d="M3588.55 1358.82c0,0 132.03,22.5 130.42,51.2 -1.61,28.48 -95.06,102.87 -289.77,183.69 -203.67,84.5 -530.4,136.16 -883.54,136.16l0 -42.94c807.54,0 1049.78,-246.83 1049.78,-246.83 -2.3,-25.94 -5.28,-53.04 -8.95,-81.05l2.06 -0.23z"/>
      <path class="fil3" d="M3391.77 3388.35l315.03 455.32 -81.28 24.8c-84.27,-217.21 -225.02,-464.74 -233.75,-480.12z"/>
      <path class="fil2" d="M3690.73 2185.88c-17.68,123.3 -76,207.57 -215.61,237.65 0,0 106.77,-82.66 131.57,-114.12 57.86,-73.48 57.86,-138.46 57.86,-138.46 9.65,-2.06 19.29,-4.13 28.7,-6.19 -0.69,7.11 -1.6,14.23 -2.52,21.12z"/>
      <path class="fil1" d="M3487.06 4181.66c159.12,82.66 227.32,39.26 231.68,36.27 -99.42,284.95 -222.95,496.88 -327.42,644.07 -86.11,30.3 -175.89,56.25 -268.19,77.14 111.59,-294.13 198.38,-896.17 195.17,-1233.01 0,0 0,387.82 168.76,475.53z"/>
      <path class="fil3" d="M3664.55 2170.95c0,0 0,64.98 -57.86,138.46 -24.8,31.46 -131.57,114.12 -131.57,114.12 -8.72,1.83 -17.68,3.67 -27.09,5.05 16.76,-80.37 31.23,-152.23 39.03,-192.65 4.37,-21.58 6.89,-33.98 6.89,-33.98 60.85,-9.41 117.56,-19.74 170.6,-31z"/>
      <path class="fil4" d="M2662.76 1273.17c505.6,-17.22 799.27,-142.12 880.79,-182.08 2.52,14.01 5.05,27.79 7.57,41.57 -90.23,54.87 -222.26,94.37 -381.61,125.36 0,0 167.85,36.28 389.65,-79.45 10.56,63.15 20.21,124 27.33,180.48 3.67,28.01 6.65,55.11 8.95,81.05 0,0 -242.24,246.83 -1049.78,246.83l0 -411.69c40.18,0 79.21,-0.69 117.1,-2.07z"/>
      <path class="fil1" d="M3555.03 1155.39c1.37,7.8 2.75,15.61 4.13,23.18 -221.8,115.73 -389.65,79.45 -389.65,79.45 159.35,-30.99 291.38,-70.49 381.61,-125.36 1.38,7.57 2.53,15.15 3.91,22.73z"/>
      <path class="fil3" d="M3533.44 1036.22c3.45,18.37 6.89,36.73 10.11,54.87 -81.52,39.96 -375.19,164.86 -880.79,182.08 537.29,-54.87 736.59,-163.94 870.68,-236.95z"/>
      <path class="fil1" d="M3199.13 240.39c6.66,5.96 112.28,100.56 137.54,199.3 25.94,102.17 97.35,453.71 97.35,453.71l-42.7 -479.66c0,0 -35.82,-90.24 -192.19,-173.35zm223.87 135.47l0 0c16.53,183.22 67.28,428.91 110.44,660.36 -134.09,73.01 -333.39,182.08 -870.68,236.95 -37.89,1.38 -76.92,2.07 -117.1,2.07l0 -906.5c363.47,0 389.42,-213.77 389.42,-213.77 -76.23,54.42 -156.6,102.18 -389.42,102.18l0 -28.48c48.22,2.53 120.77,0.69 204.12,-23.88 95.29,-27.78 163.94,-73.01 204.35,-104.47 67.74,-2.52 152.24,0.46 316.64,118.71 72.33,52.12 120.77,110.9 152.23,156.83z"/>
      <path class="fil3" d="M3493.95 2201.95c0,0 -2.52,12.4 -6.89,33.98 0,0 -56.25,139.15 -98.27,271.86 -52.35,23.89 -105.62,25.72 -254.18,28.48 -192.41,3.44 -247.06,41.55 -323.06,43.85 -76,2.3 -159.12,-87.94 -265.89,-87.94l0 -230.3c395.39,0 704.67,-22.27 948.29,-59.93z"/>
      <path class="fil2" d="M3487.06 2235.93c-7.8,40.42 -22.27,112.28 -39.03,192.65 -3.45,16.99 -7.12,34.44 -10.79,51.89 -17.68,11.48 -32.84,20.44 -48.45,27.32 42.02,-132.71 98.27,-271.86 98.27,-271.86z"/>
      <path class="fil4" d="M3391.32 413.74l42.7 479.66c0,0 -71.41,-351.54 -97.35,-453.71 -25.26,-98.74 -130.88,-193.34 -137.54,-199.3 156.37,83.11 192.19,173.35 192.19,173.35z"/>
      <path class="fil5" d="M3388.79 2507.79c15.61,-6.88 30.77,-15.84 48.45,-27.32 -26.41,126.51 -55.11,260.84 -71.41,321.45 -9.19,34.44 -43.17,91.62 -91.16,158.43 -32.6,45.47 -71.64,95.29 -113.65,145.58 -79.22,94.37 -169.23,190.35 -248.44,260.61 13.08,-13.09 135.24,-135.93 241.09,-301.94 112.05,-175.42 168.76,-268.19 197.23,-415.6 7.81,-40.87 21.82,-90.47 37.89,-141.21z"/>
      <path class="fil2" d="M2707.07 3487.31c-64.06,15.16 -130.65,17.68 -161.41,17.68l0 -332.7c85.87,0 188.05,-62.23 194.48,-66.13 -4.82,0.46 -64.06,7.57 -194.48,7.57l0 -93.45c172.66,0 337.3,-23.65 337.3,-23.65 -88.64,-1.6 -229.62,-38.11 -251.89,-36.28 -22.04,1.84 -85.41,44.09 -85.41,44.09l0 -185.07c72.1,0 104.7,-28.7 119.4,-55.33 90.46,-19.29 100.33,-79.45 100.33,-79.45 -15.61,21.36 -35.58,36.97 -88.39,34.9 0,0 -47.53,66.59 -131.34,66.59l0 -293.9c106.77,0 189.89,90.24 265.89,87.94 76,-2.3 130.65,-40.41 323.06,-43.85 148.56,-2.76 201.83,-4.59 254.18,-28.48 -16.07,50.74 -30.08,100.34 -37.89,141.21 -28.47,147.41 -85.18,240.18 -197.23,415.6 -105.85,166.01 -228.01,288.85 -241.09,301.94 -0.69,0.46 -1.15,0.92 -1.15,0.92 -50.97,45.23 -97.13,79.67 -132.95,96.2 -21.81,10.11 -46.38,17.91 -71.41,23.65zm67.05 -801.11l0 0c73.48,18.37 160.27,140.52 172.44,236.96 1.38,17.91 1.38,29.16 1.38,29.16 0.46,-9.42 0,-19.06 -1.38,-29.16 -2.3,-35.82 -8.5,-98.05 -25.49,-146.72 -21.58,-61.31 -117.56,-84.5 -146.95,-90.24z"/>
      <path class="fil5" d="M3274.67 2960.35c10.57,119.4 9.88,282.66 1.61,465.66 -8.95,59.46 -20.21,116.18 -32.15,168.07 -39.72,172.67 -87.25,294.13 -87.25,294.13 -89.32,-124.22 -216.98,-233.28 -313.65,-306.3 -36.04,-27.09 -67.73,-49.36 -91.38,-65.21 177.26,-55.79 277.37,-194.48 409.17,-410.77 42.01,-50.29 81.05,-100.11 113.65,-145.58z"/>
      <path class="fil2" d="M3244.13 3594.08c11.94,-51.89 23.2,-108.61 32.15,-168.07 -24.34,547.62 -115.26,1270.89 -172.9,1517.49 -36.96,8.04 -74.39,15.39 -112.05,21.82 117.79,-327.66 248.9,-1339.55 252.8,-1371.24z"/>
      <path class="fil5" d="M3156.88 3888.21c0,0 47.53,-121.46 87.25,-294.13 -3.9,31.69 -135.01,1043.58 -252.8,1371.24 -39.03,6.66 -78.29,12.63 -118.25,17.45 0,0 -51.89,-519.84 -68.42,-716.16 -16.76,-196.32 -110.21,-448.2 -110.21,-448.2l85.87 -161.41 24.34 -28.94c0,0 216.06,132.72 352.22,260.15z"/>
      <path class="fil1" d="M2912.58 3366.54c79.21,-70.26 169.22,-166.24 248.44,-260.61 -131.8,216.29 -231.91,354.98 -409.17,410.77 -26.18,-17.68 -42.48,-28.01 -44.78,-29.39 25.03,-5.74 49.6,-13.54 71.41,-23.65 35.82,-16.53 81.98,-50.97 132.95,-96.2 0,0 0.46,-0.46 1.15,-0.92z"/>
      <path class="fil1" d="M2921.07 2776.44c16.99,48.67 23.19,110.9 25.49,146.72 -12.17,-96.44 -98.96,-218.59 -172.44,-236.96 29.39,5.74 125.37,28.93 146.95,90.24z"/>
      <path class="fil3" d="M3156.88 3888.21c-136.16,-127.43 -352.22,-260.15 -352.22,-260.15l38.57 -46.15c96.67,73.02 224.33,182.08 313.65,306.3z"/>
      <path class="fil3" d="M2935.08 154.97c0,0 -25.95,213.77 -389.42,213.77l0 -111.59c232.82,0 313.19,-47.76 389.42,-102.18z"/>
      <path class="fil3" d="M2873.08 4982.77c-20.2,2.53 -40.41,4.82 -60.85,6.89 0,0 -25.94,-556.81 -57.63,-778.38 -31.68,-221.81 -104.47,-399.07 -104.47,-399.07l130.19 -155.21 -85.87 161.41c0,0 93.45,251.88 110.21,448.2 16.53,196.32 68.42,716.16 68.42,716.16z"/>
      <path class="fil1" d="M2843.23 3581.91l-38.57 46.15 -24.34 28.94 -130.19 155.21 -104.47 0 0 -267.73c79.9,0 147.41,-9.41 206.19,-27.78 23.65,15.85 55.34,38.12 91.38,65.21z"/>
      <path class="fil1" d="M2812.23 4989.66c-14.92,1.61 -29.84,2.98 -44.77,3.9l-0.23 -3.9c12.86,-230.53 -36.05,-737.28 -36.05,-737.28 0,0 -5.05,622.01 -92.53,748.99 -30.77,1.15 -61.77,1.61 -92.99,1.61l0 -1190.77 104.47 0c0,0 72.79,177.26 104.47,399.07 31.69,221.57 57.63,778.38 57.63,778.38z"/>
      <path class="fil1" d="M2882.96 2996.63c0,0 -164.64,23.65 -337.3,23.65l0 -15.84c0,0 63.37,-42.25 85.41,-44.09 22.27,-1.83 163.25,34.68 251.89,36.28z"/>
      <path class="fil2" d="M2731.18 4252.38c0,0 48.91,506.75 36.05,737.28l0.23 3.9c-42.48,3.67 -85.42,6.43 -128.81,7.81 87.48,-126.98 92.53,-748.99 92.53,-748.99z"/>
      <path class="fil3" d="M2765.39 2684.59c0,0 -9.87,60.16 -100.33,79.45 12.62,-23.19 11.94,-44.55 11.94,-44.55 52.81,2.07 72.78,-13.54 88.39,-34.9z"/>
      <path class="fil3" d="M2707.07 3487.31c2.3,1.38 18.6,11.71 44.78,29.39 -58.78,18.37 -126.29,27.78 -206.19,27.78l0 -39.49c30.76,0 97.35,-2.52 161.41,-17.68z"/>
      <path class="fil2" d="M2545.66 3113.73c130.42,0 189.66,-7.11 194.48,-7.57 -6.43,3.9 -108.61,66.13 -194.48,66.13l0 -58.56z"/>
      <path class="fil3" d="M2665.06 2764.04c-14.7,26.63 -47.3,55.33 -119.4,55.33l0 -33.29c83.81,0 131.34,-66.59 131.34,-66.59 0,0 0.68,21.36 -11.94,44.55z"/>
     </g>
     <g>
      <g>
       <path class="fil6" d="M521.78 3459.07c0,32.15 1.38,64.06 3.91,95.75l0.23 0c203.43,-127.44 846.34,-385.52 846.34,-385.52 0,0 223.19,-190.12 353.15,-367.38 -16.31,-60.61 -45.01,-194.94 -71.41,-321.45 -3.67,-17.45 -7.35,-34.9 -10.79,-51.89 -9.42,-1.38 -18.37,-3.22 -27.1,-5.05 -139.6,-30.08 -197.92,-114.35 -215.6,-237.65 -530.86,278.29 -878.73,744.85 -878.73,1273.19z"/>
       <path class="fil1" d="M844.16 3449.88c-14.93,11.49 -253.95,195.63 -265.2,230.08 -11.48,34.44 85.19,354.75 141.9,447.51 1.61,2.75 3.44,5.51 5.05,7.8 180.25,281.97 470.01,515.94 826.83,669.32 -175.42,-198.38 -266.12,-525.35 -266.12,-525.35l110.44 -391.03 -252.8 -58.55 -52.35 -285.18c56.94,-156.82 188.28,-265.65 188.28,-265.65 27.78,-37.66 58.78,-75.09 92.07,-109.53 0,0 -642.91,258.08 -846.34,385.52l-0.23 0c1.15,16.53 2.98,32.6 5.05,48.91l313.42 -153.85z"/>
       <path class="fil2" d="M844.16 3449.88l-313.42 153.85c22.5,186.21 88.4,362.78 190.12,523.74 -56.71,-92.76 -153.38,-413.07 -141.9,-447.51 11.25,-34.45 250.27,-218.59 265.2,-230.08z"/>
       <path class="fil3" d="M1042.54 1275.7c-156.59,47.76 -348.78,183.69 -340.97,336.84 0,0 38.12,-77.61 139.37,-183.69 94.84,-99.42 190.12,-147.41 201.6,-153.15z"/>
       <path class="fil1" d="M1532.07 1178.57c1.38,-7.57 2.76,-15.38 4.14,-23.18l-29.85 -0.69c-870.46,57.4 -960.7,437.4 -780.22,660.59 106.54,131.79 285.87,263.59 671.84,349.47 9.42,2.06 19.06,4.13 28.7,6.19 53.04,11.26 109.76,21.59 170.6,31 243.62,37.66 552.91,59.93 948.3,59.93l0 -40.41c-963.68,0 -1388.23,-148.79 -1630.47,-310.44 16.99,8.04 570.58,266.81 1630.47,266.81l0 -447.97c-353.15,0 -679.88,-51.66 -883.55,-136.16 -194.71,-80.82 -288.16,-155.21 -289.77,-183.69 -1.6,-28.7 130.42,-51.2 130.42,-51.2l2.07 0.23c7.12,-56.48 16.76,-117.33 27.32,-180.48zm-830.5 433.97l0 0c-7.81,-153.15 184.38,-289.08 340.97,-336.84 0.46,-0.23 0.69,-0.23 1.15,-0.46 0,0 -0.46,0.23 -1.15,0.46 -11.48,5.74 -106.76,53.73 -201.6,153.15 -101.25,106.08 -139.37,183.69 -139.37,183.69z"/>
       <path class="fil3" d="M1189.5 3783.97l-0.23 0c-40.88,-148.1 -63.61,-248.9 -63.61,-248.9 0,0 59.47,-127.89 154.53,-256.24 0,0 -131.34,108.83 -188.28,265.65l52.35 285.18 252.8 58.55 -110.44 391.03c0,0 90.7,326.97 266.12,525.35 29.62,12.86 59.7,25.03 90.24,36.51 -122.62,-138.46 -231.68,-383.22 -317.56,-623.62 1.61,-3.91 140.3,-349.01 140.3,-349.01l-81.28 -24.8 -194.94 -59.7z"/>
       <path class="fil1" d="M1699.46 3388.35c-8.72,15.38 -149.48,262.91 -233.74,480.12 0,0 -138.69,345.1 -140.3,349.01 85.88,240.4 194.94,485.16 317.56,623.62l0.23 0.23c18.59,7.12 37.65,14.01 56.71,20.67 -104.47,-147.19 -228,-359.12 -327.43,-644.07 4.37,2.99 72.56,46.39 231.68,-36.27 168.77,-87.71 168.77,-475.53 168.77,-475.53 -3.22,336.84 83.58,938.88 195.17,1233.01 6.42,1.61 13.08,2.99 19.74,4.36 -57.63,-246.6 -148.56,-969.87 -172.9,-1517.49 -8.26,-183 -8.95,-346.26 1.61,-465.66 -47.99,-66.81 -81.97,-123.99 -91.15,-158.43 -129.96,177.26 -353.15,367.38 -353.15,367.38 -33.29,34.44 -64.29,71.87 -92.07,109.53 -95.06,128.35 -154.53,256.24 -154.53,256.24 0,0 22.73,100.8 63.61,248.9l0.23 0 194.94 59.7 315.02 -455.32z"/>
       <path class="fil3" d="M2545.58 2177.84c-1059.89,0 -1613.48,-258.77 -1630.47,-266.81 242.24,161.65 666.79,310.44 1630.47,310.44l0 -43.63z"/>
       <path class="fil3" d="M1502.68 1358.82c0,0 -132.02,22.5 -130.42,51.2 1.61,28.48 95.06,102.87 289.77,183.69 203.67,84.5 530.4,136.16 883.55,136.16l0 -42.94c-807.54,0 -1049.79,-246.83 -1049.79,-246.83 2.3,-25.94 5.29,-53.04 8.96,-81.05l-2.07 -0.23z"/>
       <path class="fil3" d="M1699.46 3388.35l-315.02 455.32 81.28 24.8c84.26,-217.21 225.02,-464.74 233.74,-480.12z"/>
       <path class="fil2" d="M1400.51 2185.88c17.68,123.3 76,207.57 215.6,237.65 0,0 -106.77,-82.66 -131.57,-114.12 -57.86,-73.48 -57.86,-138.46 -57.86,-138.46 -9.64,-2.06 -19.28,-4.13 -28.7,-6.19 0.69,7.11 1.61,14.23 2.53,21.12z"/>
       <path class="fil1" d="M1604.17 4181.66c-159.12,82.66 -227.31,39.26 -231.68,36.27 99.43,284.95 222.96,496.88 327.43,644.07 86.1,30.3 175.88,56.25 268.19,77.14 -111.59,-294.13 -198.39,-896.17 -195.17,-1233.01 0,0 0,387.82 -168.77,475.53z"/>
       <path class="fil3" d="M1426.68 2170.95c0,0 0,64.98 57.86,138.46 24.8,31.46 131.57,114.12 131.57,114.12 8.73,1.83 17.68,3.67 27.1,5.05 -16.77,-80.37 -31.23,-152.23 -39.04,-192.65 -4.36,-21.58 -6.89,-33.98 -6.89,-33.98 -60.84,-9.41 -117.56,-19.74 -170.6,-31z"/>
       <path class="fil4" d="M2428.48 1273.17c-505.61,-17.22 -799.28,-142.12 -880.79,-182.08 -2.53,14.01 -5.05,27.79 -7.58,41.57 90.24,54.87 222.27,94.37 381.61,125.36 0,0 -167.84,36.28 -389.65,-79.45 -10.56,63.15 -20.2,124 -27.32,180.48 -3.67,28.01 -6.66,55.11 -8.96,81.05 0,0 242.25,246.83 1049.79,246.83l0 -411.69c-40.18,0 -79.22,-0.69 -117.1,-2.07z"/>
       <path class="fil1" d="M1536.21 1155.39c-1.38,7.8 -2.76,15.61 -4.14,23.18 221.81,115.73 389.65,79.45 389.65,79.45 -159.34,-30.99 -291.37,-70.49 -381.61,-125.36 -1.38,7.57 -2.52,15.15 -3.9,22.73z"/>
       <path class="fil3" d="M1557.79 1036.22c-3.45,18.37 -6.89,36.73 -10.1,54.87 81.51,39.96 375.18,164.86 880.79,182.08 -537.3,-54.87 -736.6,-163.94 -870.69,-236.95z"/>
       <path class="fil1" d="M1892.1 240.39c-6.65,5.96 -112.28,100.56 -137.53,199.3 -25.95,102.17 -97.36,453.71 -97.36,453.71l42.71 -479.66c0,0 35.82,-90.24 192.18,-173.35zm-223.87 135.47l0 0c-16.53,183.22 -67.27,428.91 -110.44,660.36 134.09,73.01 333.39,182.08 870.69,236.95 37.88,1.38 76.92,2.07 117.1,2.07l0 -906.5c-363.48,0 -389.42,-213.77 -389.42,-213.77 76.23,54.42 156.59,102.18 389.42,102.18l0 -28.48c-48.22,2.53 -120.78,0.69 -204.13,-23.88 -95.29,-27.78 -163.94,-73.01 -204.35,-104.47 -67.74,-2.52 -152.23,0.46 -316.63,118.71 -72.33,52.12 -120.78,110.9 -152.24,156.83z"/>
       <path class="fil3" d="M1597.28 2201.95c0,0 2.53,12.4 6.89,33.98 0,0 56.26,139.15 98.27,271.86 52.36,23.89 105.63,25.72 254.18,28.48 192.42,3.44 247.07,41.55 323.07,43.85 76,2.3 159.12,-87.94 265.89,-87.94l0 -230.3c-395.39,0 -704.68,-22.27 -948.3,-59.93z"/>
       <path class="fil2" d="M1604.17 2235.93c7.81,40.42 22.27,112.28 39.04,192.65 3.44,16.99 7.12,34.44 10.79,51.89 17.68,11.48 32.83,20.44 48.44,27.32 -42.01,-132.71 -98.27,-271.86 -98.27,-271.86z"/>
       <path class="fil4" d="M1699.92 413.74l-42.71 479.66c0,0 71.41,-351.54 97.36,-453.71 25.25,-98.74 130.88,-193.34 137.53,-199.3 -156.36,83.11 -192.18,173.35 -192.18,173.35z"/>
       <path class="fil5" d="M1702.44 2507.79c-15.61,-6.88 -30.76,-15.84 -48.44,-27.32 26.4,126.51 55.1,260.84 71.41,321.45 9.18,34.44 43.16,91.62 91.15,158.43 32.61,45.47 71.64,95.29 113.66,145.58 79.22,94.37 169.22,190.35 248.44,260.61 -13.09,-13.09 -135.24,-135.93 -241.09,-301.94 -112.05,-175.42 -168.77,-268.19 -197.24,-415.6 -7.81,-40.87 -21.81,-90.47 -37.89,-141.21z"/>
       <path class="fil2" d="M2317.12 2686.2c-73.48,18.37 -160.27,140.52 -172.44,236.96 -1.38,17.91 -1.38,29.16 -1.38,29.16 -0.46,-9.42 0,-19.06 1.38,-29.16 2.29,-35.82 8.49,-98.05 25.48,-146.72 21.59,-61.31 117.57,-84.5 146.96,-90.24zm67.04 801.11l0 0c64.06,15.16 130.65,17.68 161.42,17.68l0 -332.7c-85.88,0 -188.05,-62.23 -194.48,-66.13 4.82,0.46 64.06,7.57 194.48,7.57l0 -93.45c-172.67,0 -337.3,-23.65 -337.3,-23.65 88.63,-1.6 229.61,-38.11 251.88,-36.28 22.04,1.84 85.42,44.09 85.42,44.09l0 -185.07c-72.1,0 -104.7,-28.7 -119.4,-55.33 -90.47,-19.29 -100.34,-79.45 -100.34,-79.45 15.61,21.36 35.59,36.97 88.4,34.9 0,0 47.53,66.59 131.34,66.59l0 -293.9c-106.77,0 -189.89,90.24 -265.89,87.94 -76,-2.3 -130.65,-40.41 -323.07,-43.85 -148.55,-2.76 -201.82,-4.59 -254.18,-28.48 16.08,50.74 30.08,100.34 37.89,141.21 28.47,147.41 85.19,240.18 197.24,415.6 105.85,166.01 228,288.85 241.09,301.94 0.69,0.46 1.15,0.92 1.15,0.92 50.97,45.23 97.12,79.67 132.94,96.2 21.82,10.11 46.38,17.91 71.41,23.65z"/>
       <path class="fil5" d="M1816.56 2960.35c-10.56,119.4 -9.87,282.66 -1.61,465.66 8.96,59.46 20.21,116.18 32.15,168.07 39.72,172.67 87.25,294.13 87.25,294.13 89.32,-124.22 216.99,-233.28 313.65,-306.3 36.05,-27.09 67.74,-49.36 91.39,-65.21 -177.26,-55.79 -277.37,-194.48 -409.17,-410.77 -42.02,-50.29 -81.05,-100.11 -113.66,-145.58z"/>
       <path class="fil2" d="M1847.1 3594.08c-11.94,-51.89 -23.19,-108.61 -32.15,-168.07 24.34,547.62 115.27,1270.89 172.9,1517.49 36.97,8.04 74.4,15.39 112.05,21.82 -117.79,-327.66 -248.9,-1339.55 -252.8,-1371.24z"/>
       <path class="fil5" d="M1934.35 3888.21c0,0 -47.53,-121.46 -87.25,-294.13 3.9,31.69 135.01,1043.58 252.8,1371.24 39.04,6.66 78.3,12.63 118.25,17.45 0,0 51.9,-519.84 68.42,-716.16 16.77,-196.32 110.22,-448.2 110.22,-448.2l-85.87 -161.41 -24.35 -28.94c0,0 -216.06,132.72 -352.22,260.15z"/>
       <path class="fil1" d="M2178.66 3366.54c-79.22,-70.26 -169.22,-166.24 -248.44,-260.61 131.8,216.29 231.91,354.98 409.17,410.77 26.17,-17.68 42.48,-28.01 44.77,-29.39 -25.03,-5.74 -49.59,-13.54 -71.41,-23.65 -35.82,-16.53 -81.97,-50.97 -132.94,-96.2 0,0 -0.46,-0.46 -1.15,-0.92z"/>
       <path class="fil1" d="M2170.16 2776.44c-16.99,48.67 -23.19,110.9 -25.48,146.72 12.17,-96.44 98.96,-218.59 172.44,-236.96 -29.39,5.74 -125.37,28.93 -146.96,90.24z"/>
       <path class="fil3" d="M1934.35 3888.21c136.16,-127.43 352.22,-260.15 352.22,-260.15l-38.57 -46.15c-96.66,73.02 -224.33,182.08 -313.65,306.3z"/>
       <path class="fil3" d="M2156.16 154.97c0,0 25.94,213.77 389.42,213.77l0 -111.59c-232.83,0 -313.19,-47.76 -389.42,-102.18z"/>
       <path class="fil3" d="M2218.15 4982.77c20.21,2.53 40.41,4.82 60.85,6.89 0,0 25.95,-556.81 57.63,-778.38 31.69,-221.81 104.48,-399.07 104.48,-399.07l-130.19 -155.21 85.87 161.41c0,0 -93.45,251.88 -110.22,448.2 -16.52,196.32 -68.42,716.16 -68.42,716.16z"/>
       <path class="fil1" d="M2248 3581.91l38.57 46.15 24.35 28.94 130.19 155.21 104.47 0 0 -267.73c-79.91,0 -147.41,-9.41 -206.19,-27.78 -23.65,15.85 -55.34,38.12 -91.39,65.21z"/>
       <path class="fil1" d="M2279 4989.66c14.92,1.61 29.85,2.98 44.78,3.9l0.23 -3.9c-12.87,-230.53 36.04,-737.28 36.04,-737.28 0,0 5.05,622.01 92.53,748.99 30.77,1.15 61.77,1.61 93,1.61l0 -1190.77 -104.47 0c0,0 -72.79,177.26 -104.48,399.07 -31.68,221.57 -57.63,778.38 -57.63,778.38z"/>
       <path class="fil1" d="M2208.28 2996.63c0,0 164.63,23.65 337.3,23.65l0 -15.84c0,0 -63.38,-42.25 -85.42,-44.09 -22.27,-1.83 -163.25,34.68 -251.88,36.28z"/>
       <path class="fil3" d="M2360.05 4252.38c0,0 -48.91,506.75 -36.04,737.28l-0.23 3.9c42.47,3.67 85.41,6.43 128.8,7.81 -87.48,-126.98 -92.53,-748.99 -92.53,-748.99z"/>
       <path class="fil3" d="M2325.84 2684.59c0,0 9.87,60.16 100.34,79.45 -12.63,-23.19 -11.94,-44.55 -11.94,-44.55 -52.81,2.07 -72.79,-13.54 -88.4,-34.9z"/>
       <path class="fil3" d="M2384.16 3487.31c-2.29,1.38 -18.6,11.71 -44.77,29.39 58.78,18.37 126.28,27.78 206.19,27.78l0 -39.49c-30.77,0 -97.36,-2.52 -161.42,-17.68z"/>
       <path class="fil2" d="M2545.58 3113.73c-130.42,0 -189.66,-7.11 -194.48,-7.57 6.43,3.9 108.6,66.13 194.48,66.13l0 -58.56z"/>
       <path class="fil3" d="M2426.18 2764.04c14.7,26.63 47.3,55.33 119.4,55.33l0 -33.29c-83.81,0 -131.34,-66.59 -131.34,-66.59 0,0 -0.69,21.36 11.94,44.55z"/>
      </g>
     </g>
    </g>
    <path class="fil5" d="M2230.9 3009.07c42.35,19.8 30.48,54.94 116.78,54.79 86.3,-0.16 175.77,-13.36 175.77,-13.36l209.02 -23.61 128.64 -25.37 -5.12 -1.95c0,0 -151.31,20.71 -310.41,20.71 -159.11,0 -334.09,-23.08 -334.09,-23.08l19.41 11.87z"/>
    <path class="fil3" d="M2690.24 3031.66c-36.05,-0.03 -83.8,-0.27 -131.95,-1.13 -97.37,-1.74 -172.41,-4.83 -334.79,-31.83 -0.3,-0.04 -0.62,-0.08 -0.9,-0.12l-8.83 0 17.13 10.49c42.36,19.8 30.48,54.94 116.78,54.79 86.3,-0.16 175.77,-13.36 175.77,-13.36l166.79 -18.84z"/>
    <path class="fil5" d="M2623.78 2628.39c21.02,-2.64 32.05,84.59 2.77,84.55 -29.28,-0.05 -32.12,-80.86 -2.77,-84.55z"/>
    <path class="fil5" d="M2714.31 3048.66c19.91,-21.91 72.92,-8.31 51.08,5.94 -21.83,14.25 -67.27,11.88 -51.08,-5.94z"/>
    <g>
     <path class="fil3" d="M2603.34 2878.64c26.84,-28.07 79.57,-19 135.39,7.13 55.82,26.12 165.09,66.5 160.34,78.38 -2.32,5.8 -29.68,1.63 -33.92,1.33 -25.17,-1.78 -50.26,-4.93 -75.26,-8.32 -29.14,-3.96 -58.3,-7.91 -87.25,-13.08 -23.48,-4.2 -49.48,-7.29 -71.59,-16.54 -14.93,-6.24 -44.82,-31 -27.71,-48.9z"/>
     <path class="fil3" d="M2487.89 2878.64c-26.83,-28.07 -79.57,-19 -135.39,7.13 -55.82,26.12 -165.08,66.5 -160.33,78.38 2.32,5.8 29.68,1.63 33.92,1.33 25.17,-1.78 50.25,-4.93 75.25,-8.32 29.14,-3.96 58.3,-7.91 87.26,-13.08 23.47,-4.2 49.48,-7.29 71.58,-16.54 14.93,-6.24 44.82,-31 27.71,-48.9z"/>
    </g>
    <path class="fil3" d="M2384.16 3050.5c83.45,7.15 398.29,-29.09 498.8,-53.87 0,0 -87.38,37.41 -217.91,44.33 -130.52,6.91 -297.72,47.07 -297.72,47.07l16.83 -37.53z"/>
    <path class="fil3" d="M2208.28 2996.63c0,0 31.86,29.25 73.91,60.51l16.99 -12.71 -76.35 -45.85 -14.55 -1.95z"/>
    <path class="fil1" d="M2457.34 3157.92c77.19,-7.12 249.39,-27.31 253.55,-13.06 4.16,14.25 -102.72,59.38 -162.11,59.38 -59.38,0 -91.44,-46.32 -91.44,-46.32z"/>
    <g>
     <path class="fil3" d="M2833.31 2993.44c9.79,-5.22 47.76,-3.21 54.89,2.65 7.13,5.86 42.43,48.05 20.96,50.79 -8.93,1.14 -75.85,-53.44 -75.85,-53.44z"/>
     <path class="fil3" d="M2257.93 2993.44c-9.79,-5.22 -47.77,-3.21 -54.89,2.65 -7.13,5.86 -42.43,48.05 -20.96,50.79 8.92,1.14 75.85,-53.44 75.85,-53.44z"/>
    </g>
    <g>
     <path class="fil1" d="M2385.48 3065.45c-9.96,27.54 -283.53,265.09 -351.79,331.59l0 0.29c-17.28,16.7 -27.82,26.96 -27.82,26.96 -1.18,0 -52.44,-0.3 -87.01,-48.34 -35.15,-48.33 -13.47,-72.65 -13.47,-72.65l18.75 -13.48 0.29 0 389.26 -291.21c39.26,-13.18 83.81,32.86 71.79,66.84z"/>
     <path class="fil5" d="M2033.69 3397.04l0 0.29c-17.28,16.7 -27.82,26.96 -27.82,26.96 -1.18,0 -52.44,-0.3 -87.01,-48.34 -32.8,-45.11 -16.11,-69.13 -13.76,-72.35l0.29 -0.3 18.75 -13.48 0.29 0c37.79,-8.2 106.3,66.94 109.26,107.22z"/>
     <path class="fil7" d="M2005.87 3424.29c-1.18,0 -52.44,-0.3 -87.01,-48.34 -32.8,-45.11 -16.11,-69.13 -13.76,-72.35l0.29 -0.3c12.3,-8.79 52.14,11.72 72.94,41.31 20.51,29.88 36.91,65.32 27.54,79.68z"/>
    </g>
    <path class="fil3" d="M2384.16 3050.5l-350.47 293.49c0,0 9.31,14.33 7.57,30.87l342.9 -304.43 10.64 -19.29 -10.64 -0.64z"/>
    <polygon class="fil4" points="1966.24,3278.83 2310.07,3020.28 1999.4,3294.75 "/>
    <path class="fil2" d="M3723.79 4174.55l-217.76 -510.09c0,0 99.76,337.93 137.76,395.5 38.01,57.58 80,114.59 80,114.59z"/>
    <path class="fil2" d="M1187.74 3504.99c0,0 162.86,-268.45 184.75,-294.7 21.9,-26.24 -35.1,82.2 -68.36,156.25 -33.25,74.04 -116.39,138.45 -116.39,138.45z"/>
   </g>
   <path class="fil8" d="M1703.7 3163.13c-58.98,-48.09 -107.21,-113.48 -119.06,-188.67 -13.62,-85.69 20.57,-170.69 39.1,-255.42 18.52,-84.87 15.94,-186.77 -51.22,-241.8 -80.24,-65.66 -216.74,-34.46 -284.17,-113.2 -47,-55.04 -36.37,-138.82 -10.08,-206.24 26.43,-67.58 66.07,-132.15 70.02,-204.48 4.91,-89.64 -48.36,-175.05 -119.74,-229.54 -71.52,-54.49 -159.11,-82.82 -246.16,-105.44 -66.61,-17.3 -136.36,-32.83 -190.71,-75.19 -14.5,-11.29 -26.97,-24.58 -37.82,-39.1 16.46,39.9 42.07,75.81 72.82,105.97 33.2,32.57 71.74,59.69 113.6,79.96 47.14,22.82 98.09,36.86 145.68,58.75 47.59,21.9 93.38,53.63 116.97,100.4 28.64,56.8 19.43,126.14 -5.15,184.8 3.78,-46.33 -22.74,-90.96 -58.4,-120.78 -78.45,-65.6 -203.03,-99.7 -301.49,-118.16 -44.21,-8.28 -90.1,-13.42 -129.85,-34.46 -39.75,-21.04 -72.56,-63.24 -66.46,-107.8 -21.28,85.97 -3.46,178.33 35.43,257.91 25.4,51.95 59.4,99.17 97.13,142.83 36.2,41.9 68.28,62.01 115.29,88.39 83.07,46.62 185.75,79.1 232.19,169.6 21.11,41.27 26.97,90.18 55.03,127.09 29.02,38.28 75.06,55.58 120.7,73.84 31.19,9.4 60.07,23.43 85.14,43.72 -24.8,-19.2 -54.9,-31.6 -85.14,-43.72 -57.35,-17.58 -121.79,-20.03 -182.41,-19.35 -101.76,1.09 -212.1,4.09 -294.38,-55.85 -75.33,-54.9 -105.71,-145.9 -140.86,-234.85 -29.15,-49.04 -73.42,-88.95 -127.37,-106.26 -71.92,-23.16 -159.38,0 -202.29,62.12 -29.02,41.96 -35.69,95.36 -34.88,146.31 0.82,52.85 9.27,106.66 34.74,152.98 36.24,65.93 103.67,110.2 175.05,134.04 138.68,46.32 312.77,51.49 457.85,47 38.28,-1.23 76.7,-4.09 114.98,-5.05 79.14,-2.04 172.46,-2.99 242.48,39.24 100.39,60.34 59.39,200.79 61.3,297.51 1.22,66.34 11.44,134.73 50.67,189.76 74.52,104.35 214.97,161.16 339.61,168.78 44.14,2.73 93.86,-7.9 106.94,-53.39 -68.12,-32.02 -136.77,-64.71 -195.08,-112.25z"/>
   <path class="fil8" d="M1191.08 2711.72c4.94,0.68 9.89,1.47 14.82,2.38 26.54,4.91 53.45,13.9 72.7,32.82 28.23,27.72 32.84,68.07 35.36,105.5 2.89,43.03 2.06,88.7 24.15,125.74 -6.03,-10.11 -19.97,-17.98 -26.98,-28.69 -8.24,-12.58 -14.11,-26.54 -19.39,-40.55 -10.6,-28.09 -17.8,-57.82 -32.68,-84.11 -37.1,-65.56 -120.59,-69.9 -187.52,-57.17 -57.01,10.84 -113.11,29.71 -169.31,43.57 -60.29,14.87 -122.84,22.95 -184.74,27.15 -29.42,2 -61.01,2.4 -85.84,-13.51 -20.57,-13.17 -33.76,-37.15 -33.89,-61.58 -0.26,-53.75 32.01,-59 73.16,-51.45 71.53,13.12 143.03,11.41 215.37,9.11 52.48,-1.67 104.92,-4.29 157.3,-7.85 48.89,-3.32 98.67,-9.33 147.49,-1.36z"/>
  </g>
  <path class="fil9 str0" d="M1936.03 3318.18c-0.23,12.04 3.92,29.19 20.08,51.41 34.58,48.04 85.83,48.34 87.01,48.34 9.37,-14.36 -7.03,-49.81 -27.54,-79.68 -20.8,-29.6 -60.64,-50.1 -72.94,-41.31 0,0 -0.1,0.11 -0.3,0.3 -1.18,1.63 -6.05,8.6 -6.31,20.94z"/>
 </g>
</svg>
